<?xml version="1.0" encoding="iso-8859-1"?>
<!-- Generator: Adobe Illustrator 19.0.0, SVG Export Plug-In . SVG Version: 6.00 Build 0)  -->
<svg version="1.1" id="Layer_1" xmlns="http://www.w3.org/2000/svg" xmlns:xlink="http://www.w3.org/1999/xlink" x="0px" y="0px"
	 viewBox="0 0 512 512" style="enable-background:new 0 0 512 512;" xml:space="preserve">
<circle style="fill:#5ED1B3;" cx="256" cy="256" r="256"/>
<path style="fill:#4BC2A2;" d="M510.405,284.559L303.247,77.396l-27.87,135.76l-106.906,2.635
	c-2.329,59.881-10.044,73.533,19.11,117.689L256,401.893v20.8h-54.856l-11.011,22.028l67.263,67.263
	C388.497,511.277,496.253,412.048,510.405,284.559z"/>
<g>
	<path style="fill:#817C85;" d="M167.715,210.482h176.57c2.851,0,5.169,2.312,5.169,5.164v64.456
		c0,19.154-7.832,36.564-20.45,49.176c-12.618,12.618-30.027,20.45-49.176,20.45h-47.658c-19.149,0-36.558-7.832-49.176-20.45
		c-12.618-12.612-20.45-30.021-20.45-49.176v-64.456C162.546,212.794,164.864,210.482,167.715,210.482z M339.121,220.815H172.884
		v59.286c0,16.303,6.67,31.122,17.42,41.872c10.744,10.75,25.569,17.42,41.866,17.42h47.658c16.303,0,31.122-6.67,41.872-17.42
		c10.744-10.75,17.42-25.569,17.42-41.872V220.815z"/>
	<polygon style="fill:#817C85;" points="245.817,344.563 266.183,344.563 266.183,422.692 245.817,422.692 	"/>
	<path style="fill:#817C85;" d="M201.144,422.692h109.713c6.059,0,11.011,4.953,11.011,11.011v11.017H190.132v-11.017
		C190.132,427.645,195.09,422.692,201.144,422.692z"/>
</g>
<path style="fill:#D9D9DD;" d="M238.947,67.279h34.107c27.709,0,50.376,22.673,50.376,50.382v155.248
	c0,27.709-22.667,50.376-50.376,50.376h-34.107c-27.709,0-50.376-22.667-50.376-50.376V117.661
	C188.57,89.952,211.238,67.279,238.947,67.279z"/>
<path style="fill:#EAEAED;" d="M277.144,67.452c18.982,6.476,32.723,24.524,32.723,45.618v148.472
	c0,26.503-21.678,48.181-48.181,48.181h-32.611c-14.374,0-27.325-6.381-36.174-16.447c-2.779-6.237-4.33-13.129-4.33-20.366V117.661
	c0-27.709,22.667-50.382,50.376-50.382h34.107C274.432,67.279,275.794,67.341,277.144,67.452z"/>
<polygon style="fill:#D9D9DD;" points="323.43,213.155 323.43,244.739 188.57,244.739 188.57,213.155 "/>
<path style="fill:#817C85;" d="M190.899,195.285h130.201c5.014,0,9.11,4.097,9.11,9.11v22.506c0,5.014-4.097,9.11-9.11,9.11H190.899
	c-5.014,0-9.11-4.097-9.11-9.11v-22.506C181.789,199.382,185.886,195.285,190.899,195.285z"/>
<g>
	<path style="fill:#D9D9DD;" d="M236.773,67.335v44.751c0,4.163-3.407,7.571-7.576,7.571l0,0c-4.169,0-7.576-3.407-7.576-7.571
		V70.37C226.385,68.614,231.476,67.563,236.773,67.335z M248.424,67.279h15.152v44.807c0,4.163-3.407,7.571-7.576,7.571l0,0
		c-4.163,0-7.576-3.407-7.576-7.571V67.279z M275.232,67.335c5.297,0.228,10.389,1.278,15.147,3.035v41.716
		c0,4.163-3.407,7.571-7.576,7.571l0,0c-4.163,0-7.571-3.407-7.571-7.571V67.335z"/>
	<path style="fill:#D9D9DD;" d="M236.773,323.235v-44.751c0-4.169-3.407-7.576-7.576-7.576l0,0c-4.169,0-7.576,3.407-7.576,7.576
		v41.711C226.385,321.951,231.476,323.007,236.773,323.235z M248.424,323.285h15.152v-44.801c0-4.169-3.407-7.576-7.576-7.576l0,0
		c-4.163,0-7.576,3.407-7.576,7.576V323.285z M275.232,323.235c5.297-0.228,10.389-1.278,15.147-3.04v-41.711
		c0-4.169-3.407-7.576-7.576-7.576l0,0c-4.163,0-7.571,3.407-7.571,7.576V323.235z"/>
</g>
<g>
</g>
<g>
</g>
<g>
</g>
<g>
</g>
<g>
</g>
<g>
</g>
<g>
</g>
<g>
</g>
<g>
</g>
<g>
</g>
<g>
</g>
<g>
</g>
<g>
</g>
<g>
</g>
<g>
</g>
</svg>
