<svg width="940" height="300" xmlns="http://www.w3.org/2000/svg">
 <defs>
  <style>.cls-1{fill:#262830;opacity:0.5;}.cls-2{fill:#fabc0f;fill-rule:evenodd;}</style>
 </defs>
 <title>SM_Hero_3</title>
 <g>
  <title>background</title>
  <rect fill="none" id="canvas_background" height="302" width="942" y="-1" x="-1"/>
 </g>
 <g>
  <title>Layer 1</title>
  <path stroke="null" id="svg_2" d="m372.513245,64.370028c-28.173416,-2.9607 -39.918839,-3.895658 -68.06888,-6.871946c-16.217642,-1.717988 -28.551306,9.34959 -32.295031,25.267258l-17.530477,74.434395c-16.751341,-9.863814 -53.884781,-3.245087 -58.99199,18.457642c-3.241193,13.763372 8.741861,24.694597 28.130561,24.6011s33.233888,-14.289284 36.015387,-26.100931c5.251355,-20.304183 8.632789,-42.645802 22.306557,-57.188298c26.548932,-28.239652 58.730984,-16.205955 79.471487,-41.251162c-10.90785,27.102112 -13.186812,64.769263 -35.672571,80.546691c-10.76371,7.549791 -35.002513,0.019475 -45.918157,20.592463c1.055723,-18.496597 20.187317,-48.543828 35.372603,-59.253002c-15.352801,8.636683 -27.413766,19.937992 -35.025887,32.485914c-38.785205,63.958965 52.817371,81.602415 64.543313,31.796393l27.659191,-117.516517l0.003894,0z" class="cls-2"/>
 </g>
</svg>