<svg width="940" height="400" xmlns="http://www.w3.org/2000/svg">
 <defs>
  <style>.cls-1{fill:#262830;opacity:0.5;}.cls-2{fill:#fabc0f;fill-rule:evenodd;}</style>
 </defs>
 <title>SM_Hero_3</title>
 <g>
  <title>background</title>
  <rect fill="none" id="canvas_background" height="402" width="582" y="-1" x="-1"/>
 </g>
 <g>
  <title>Layer 1</title>
  <rect stroke="#5ed1b3" transform="rotate(-13 290.80981445312494,65.40342712402328) " id="svg_3" height="513.21567" width="1374.020586" y="-191.204428" x="-396.200495" stroke-width="null" fill="#ed1566"/>
  <path stroke="null" id="svg_2" d="m533.390011,55.94982c-55.169531,-5.797683 -78.16955,-7.62853 -133.293309,-13.456727c-31.757571,-3.364182 -55.909498,18.308473 -63.240516,49.478647l-34.328386,145.758328c-32.80268,-19.315439 -105.517831,-6.354566 -115.518834,36.143976c-6.346937,26.951597 17.118422,48.357253 55.085617,48.174169s65.078992,-27.981449 70.525762,-51.111153c10.283259,-39.7599 16.904823,-83.509521 43.680964,-111.986824c51.988434,-55.299216 115.007722,-31.734686 155.622017,-80.778507c-21.359885,53.071685 -25.822575,126.831944 -69.854452,157.727492c-21.077629,14.784092 -68.542344,0.038143 -89.917486,40.324411c2.067332,-36.220262 39.531044,-95.059116 69.267055,-116.029945c-30.064038,16.912452 -53.681967,39.042818 -68.588116,63.614314c-75.949647,125.24521 103.427613,159.794823 126.389489,62.264064l54.162565,-230.122244l0.007629,0z" class="cls-2"/>
 </g>
</svg>