<svg width="940" height="400" xmlns="http://www.w3.org/2000/svg">
 <defs>
  <style>.cls-1{fill:#262830;opacity:0.5;}.cls-2{fill:#fabc0f;fill-rule:evenodd;}</style>
 </defs>
 <title>SM_Hero_3</title>
 <g>
  <title>background</title>
  <rect x="-1" y="-1" width="942" height="402" id="canvas_background" fill="none"/>
 </g>
 <g>
  <title>Layer 1</title>
  <rect fill="#666389" stroke-width="null" x="-395.200495" y="-195.204428" width="1374.020586" height="513.21567" id="svg_3" transform="rotate(-13 291.809814453125,61.403427124023466) "/>
  <path stroke="null" class="cls-2" d="m432.390005,24.40749c-45.006287,-4.729641 -63.76928,-6.223214 -108.738229,-10.977753c-25.907241,-2.744436 -45.609941,14.935721 -51.590444,40.363772l-28.004469,118.906963c-26.759823,-15.75718 -86.079503,-5.183941 -94.238135,29.485585c-5.177717,21.986619 13.964892,39.448963 44.937827,39.299601s53.090242,-22.826752 57.533617,-41.695535c8.388894,-32.435395 13.790649,-68.125529 35.634131,-91.356786c42.411204,-45.112086 93.821181,-25.888576 126.953579,-65.897622c-17.425005,43.2949 -21.065585,103.467162 -56.985983,128.671183c-17.194743,12.060588 -55.915579,0.031114 -73.353025,32.895911c1.68649,-29.547821 32.248695,-77.547472 56.506784,-94.655089c-24.52569,13.796865 -43.792755,31.850414 -55.952918,51.895383c-61.958326,102.172737 84.37434,130.357673 103.10622,50.793882l44.184819,-187.729496l0.006224,0z" id="svg_2"/>
  <rect stroke="null" transform="rotate(-13 500.17263793945267,274.42187499999994) " id="svg_1" height="13.971614" width="1087" y="267.436073" x="-43.327362" stroke-width="null" fill="#ed1566"/>
 </g>
</svg>