<svg width="940" height="400" xmlns="http://www.w3.org/2000/svg">
 <defs>
  <style>.cls-1{fill:#262830;opacity:0.5;}.cls-2{fill:#fabc0f;fill-rule:evenodd;}</style>
 </defs>
 <title>SM_Hero_3</title>
 <g>
  <title>background</title>
  <rect fill="none" id="canvas_background" height="402" width="942" y="-1" x="-1"/>
 </g>
 <g>
  <title>Layer 1</title>
  <rect stroke="null" transform="rotate(-13 272.40264892578125,-22.65820503234875) " id="svg_3" height="340.670085" width="1374.020586" y="-192.993258" x="-414.607652" stroke-width="null" fill="#ffffff"/>
  <path transform="rotate(-20 245.06550598144526,84.36327362060545) " stroke="null" id="svg_2" d="m311.27238,32.409242c-21.027386,-2.209735 -29.793649,-2.907546 -50.803589,-5.128915c-12.104128,-1.28223 -21.309427,6.978119 -24.103577,18.858359l-13.08397,55.554527c-12.502457,-7.361913 -40.217208,-2.421989 -44.029002,13.775964c-2.419083,10.27237 6.524537,18.430951 20.995401,18.361168s24.804298,-10.664887 26.880286,-19.480575c3.919378,-15.15414 6.44313,-31.828932 16.648624,-42.682806c19.814944,-21.076822 43.834198,-12.095405 59.313989,-30.788035c-8.141135,20.227813 -9.842051,48.340902 -26.624423,60.116473c-8.033555,5.634829 -26.124321,0.014535 -34.271273,15.3693c0.787945,-13.805039 15.066917,-36.230958 26.40054,-44.22381c-11.458649,6.446036 -20.460418,14.880832 -26.141767,24.246043c-28.947555,47.736131 39.42054,60.904419 48.172262,23.731416l20.643592,-87.70911l0.002906,0z" class="cls-2"/>
  <rect fill="#ed1566" stroke-width="null" x="-43.327362" y="96.83419" width="1087" height="13.971614" id="svg_1" transform="rotate(-13 500.17263793945295,103.81999206542972) " stroke="null"/>
 </g>
</svg>