<svg width="500" height="500" xmlns="http://www.w3.org/2000/svg">
 <defs>
  <style>.cls-1{fill:#fff;}.cls-2,.cls-3{fill:#fabc0f;}.cls-3{fill-rule:evenodd;}</style>
 </defs>
 <title>SM_Logo_inLine</title>
 <g>
  <title>background</title>
  <rect fill="none" id="canvas_background" height="502" width="502" y="-1" x="-1"/>
 </g>
 <g>
  <title>Layer 1</title>
  <path id="svg_3" d="m446.04987,8.903946c-81.5,10.37 -115.27,15.54 -196.72,25.84c-46.92,5.93 -74.33,45.42 -74.33,92.79l0,221.77c-53.88,-16.71 -154.31,26.69 -154.31,91.31c0,41 41.09,63.91 95.77,50.76s84.32,-62.42 84.32,-97.63c1.33,-60.81 -4,-126.13 25,-176.26c56.18,-97.36 155,-84.78 196.93,-169.26c-12.8,83.76 5.82,191.6 -47.17,251.09c-25.37,28.47 -98.79,23.32 -115.94,88.65c-9.35,-52.97 24.69,-150.47 60.4,-190.79c-37.6,34.59 -64.13,74.5 -77.28,115c-67,206.33 203.3,195.27 203.3,46.87l0,-350.14l0.03,0z" class="cls-3"/>
 </g>
</svg>