<svg id="Layer_1" data-name="Layer 1" xmlns="http://www.w3.org/2000/svg" viewBox="0 0 2000 2000"><defs><style>.cls-1{fill:#fff;}.cls-2,.cls-3{fill:#fabc0f;}.cls-3{fill-rule:evenodd;}</style></defs><title>SM_Logo_inLine</title><path class="cls-1" d="M571.75,962.73a15,15,0,0,0-11.06,4.48,15.27,15.27,0,0,0-4.43,11c0,6,2.85,10.49,8.61,13.45,2,1.12,10.34,3.57,25,7.49q17.73,5,26.39,13.24c8.25,7.89,12.38,19.05,12.38,33.62a51.92,51.92,0,0,1-52.06,52.06h-39a17.5,17.5,0,0,1-12.68-5.35,16.84,16.84,0,0,1-5.35-12.68v-.31a18.35,18.35,0,0,1,18-18.24H578A15.31,15.31,0,0,0,593.55,1046c0-5.5-2.85-9.63-8.51-12.43-1.48-.66-9.83-3.16-25.06-7.44q-17.8-5.2-26.44-13.75-12.38-12.07-12.38-34.18a50,50,0,0,1,15.23-36.67q15.36-15.36,36.83-15.38h27.51a18.25,18.25,0,0,1,18.18,18.18v.31a16.69,16.69,0,0,1-5.35,12.68,17.52,17.52,0,0,1-12.84,5.4ZM734,963a49.13,49.13,0,0,0-49.41,49.51v1.07L768,976.13Q756.93,963.06,734,963Zm78,13.24a17.88,17.88,0,0,1,1.78,7.64,18.18,18.18,0,0,1-1.17,6.27,17.23,17.23,0,0,1-9.58,10.14q-20.86,9.39-54.91,24.76-42.25,19.1-49.56,22.56c7.59,9.53,19.36,14.31,35.4,14.31a48.21,48.21,0,0,0,28.94-9.42,48.91,48.91,0,0,0,17.77-23.84c2.86-8.15,8.66-12.28,17.27-12.28,6.22,0,11.1,2.6,14.82,7.79a17.12,17.12,0,0,1,3.41,10,18.32,18.32,0,0,1-1.22,6.42,82.17,82.17,0,0,1-30.87,41.21A83.19,83.19,0,0,1,734,1098.07q-35.52,0-60.76-25.21T648,1012.09q0-35.45,25.21-60.71T734,926.16a86.16,86.16,0,0,1,78,50.12ZM924.53,963a49.13,49.13,0,0,0-49.4,49.51v1.07l83.43-37.49q-11.08-13.06-34-13.09Zm78,13.24a17.88,17.88,0,0,1,1.78,7.64,18.15,18.15,0,0,1-1.17,6.27,17.23,17.23,0,0,1-9.58,10.14q-20.86,9.39-54.91,24.76-42.25,19.1-49.56,22.56c7.59,9.53,19.35,14.31,35.4,14.31a48.21,48.21,0,0,0,28.93-9.42,48.92,48.92,0,0,0,17.77-23.84c2.86-8.15,8.66-12.28,17.27-12.28,6.22,0,11.1,2.6,14.82,7.79a17.12,17.12,0,0,1,3.41,10,18.32,18.32,0,0,1-1.22,6.42,82.17,82.17,0,0,1-30.87,41.21,83.2,83.2,0,0,1-50.12,16.25q-35.52,0-60.76-25.21t-25.21-60.77q0-35.45,25.21-60.71t60.76-25.21a86.17,86.17,0,0,1,78,50.12ZM1115.08,963A49.39,49.39,0,1,0,1150,977.5,47.71,47.71,0,0,0,1115.08,963ZM1183,865a18,18,0,0,1,18,18v129.53q-.15,35.53-25.37,60.46t-60.57,25.06q-35.53,0-60.76-25.21t-25.21-60.77q0-35.45,25.21-60.71t60.76-25.21c21.55,0,38,5,49.36,14.92V883a18.09,18.09,0,0,1,18.08-18Z"/><path class="cls-2" d="M1256.41,1084.47a12.69,12.69,0,0,1-4,9.58,13,13,0,0,1-9.58,4h-.41a13,13,0,0,1-9.58-4,12.69,12.69,0,0,1-4-9.58v-82.06q0-27.73,19.71-47.63,19.71-19.63,47.57-19.66,33.31,0,53.58,26.54,20.17-26.51,53.43-26.54,27.89,0,47.58,19.66,19.71,19.86,19.71,47.63v82.06a12.94,12.94,0,0,1-3.87,9.58,13.16,13.16,0,0,1-9.68,4h-.3a13.74,13.74,0,0,1-13.6-13.6v-82.06a39.76,39.76,0,0,0-79.51,0v82.06a12.73,12.73,0,0,1-4.08,9.58,12.58,12.58,0,0,1-9.52,4h-.31a13.07,13.07,0,0,1-9.68-4,12.69,12.69,0,0,1-4-9.58v-82.06a39.7,39.7,0,0,0-79.41,0v82.06Zm271.44-135.64a13.16,13.16,0,0,0-4-9.68,13,13,0,0,0-9.58-4h-.41a13,13,0,0,0-9.58,4,13.15,13.15,0,0,0-4,9.68v81.65q0,27.89,19.86,47.73t47.88,19.86q27.89,0,47.78-19.86t19.81-47.73V948.83a13.16,13.16,0,0,0-4-9.68,12.66,12.66,0,0,0-9.53-4h-.3a13.73,13.73,0,0,0-13.75,13.7v81.65a40.06,40.06,0,1,1-80.12,0V948.83Zm179.35,13.91a19.3,19.3,0,0,0-14.16,5.8,19.62,19.62,0,0,0-5.81,14.16c0,7.79,3.67,13.6,11.05,17.47,2.24,1.22,10.85,3.77,25.78,7.74q16.73,4.81,24.5,12.28c7.34,6.93,11.05,17.06,11.05,30.26a47.39,47.39,0,0,1-47.63,47.63h-39a13,13,0,0,1-9.53-4,12.69,12.69,0,0,1-4-9.58v-.25a13.18,13.18,0,0,1,4-9.73,13,13,0,0,1,9.53-4h40.44a19.83,19.83,0,0,0,20-20c0-7.34-3.67-12.84-11.05-16.4q-2.52-1.14-25.82-7.74c-11-3.31-19.2-7.49-24.45-12.53q-11.08-10.93-11.05-31.07a47.56,47.56,0,0,1,47.63-47.58h27.45a13.74,13.74,0,0,1,13.7,13.7v.31a12.78,12.78,0,0,1-4,9.58,13.35,13.35,0,0,1-9.68,4ZM1803,935.12a12.67,12.67,0,0,1,9.53,4,13.16,13.16,0,0,1,4,9.68v135.64a13.74,13.74,0,0,1-13.55,13.6h-.3a13.27,13.27,0,0,1-9.73-4,12.88,12.88,0,0,1-4-9.58V948.83a13.73,13.73,0,0,1,13.75-13.7Zm-.15-28.37a16.33,16.33,0,1,1,0-32.65,15.61,15.61,0,0,1,11.46,4.74,16.35,16.35,0,0,1-11.46,27.91Zm126.27,28.37a78.62,78.62,0,0,1,24.6,3.87c6.37,2,9.58,6.32,9.58,13v.71a13.72,13.72,0,0,1-17.78,13,51,51,0,0,0-16.4-2.65,53.94,53.94,0,1,0,0,107.88,53.78,53.78,0,0,0,16.4-2.55,13.18,13.18,0,0,1,12.23,1.94,13,13,0,0,1,5.55,11.06c0,6.57-3.21,10.9-9.58,13a81.63,81.63,0,0,1-24.6,3.72q-33.77,0-57.61-23.89t-23.89-57.61q0-33.69,23.89-57.56t57.61-23.89Z"/><path class="cls-3" d="M462.05,756.91c-81.5,10.37-115.27,15.54-196.72,25.84C218.41,788.68,191,828.17,191,875.54v221.77C137.12,1080.6,36.69,1124,36.69,1188.62c0,41,41.09,63.91,95.77,50.76s84.32-62.42,84.32-97.63c1.33-60.81-4-126.13,25-176.26,56.18-97.36,155-84.78,196.93-169.26-12.8,83.76,5.82,191.6-47.17,251.09-25.37,28.47-98.79,23.32-115.94,88.65C266.25,1083,300.29,985.5,336,945.18c-37.6,34.59-64.13,74.5-77.28,115-67,206.33,203.3,195.27,203.3,46.87V756.91Z"/></svg>